# 3ds Max Wavefront OBJ Exporter v0.97b - (c)2007 guruware
# File Created: 09.02.2018 12:19:46

mtllib Cylinder01_10.mtl

#
# object Cylinder001
#

v  0.0000 0.0000 -5.0000
v  0.5000 0.8660 -5.0000
v  1.0000 0.0000 -5.0000
v  -0.5000 0.8660 -5.0000
v  -1.0000 -0.0000 -5.0000
v  -0.5000 -0.8660 -5.0000
v  0.5000 -0.8660 -5.0000
v  0.5000 0.8660 5.0000
v  1.0000 0.0000 5.0000
v  -0.5000 0.8660 5.0000
v  -1.0000 -0.0000 5.0000
v  -0.5000 -0.8660 5.0000
v  0.5000 -0.8660 5.0000
v  0.0000 0.0000 5.0000
# 14 vertices

vn 0.0000 0.0000 -1.0000
vn 1.0000 -0.0000 0.0000
vn 0.5000 0.8660 0.0000
vn 1.0000 0.0000 0.0000
vn -0.5000 0.8660 0.0000
vn -1.0000 -0.0000 0.0000
vn -1.0000 0.0000 0.0000
vn -0.5000 -0.8660 0.0000
vn 0.5000 -0.8660 0.0000
vn 0.0000 0.0000 1.0000
# 10 vertex normals

vt 0.5000 0.5000 -0.2498
vt 0.0674 0.7884 -0.2498
vt 0.5000 1.0768 -0.2498
vt 0.0674 0.2116 -0.2498
vt 0.5000 -0.0768 -0.2498
vt 0.9326 0.2116 -0.2498
vt 0.9326 0.7884 -0.2498
vt 0.7500 0.0005 1.1535
vt 0.9064 0.9995 1.0398
vt 0.7500 0.9995 1.1535
vt 0.9064 0.0005 1.0398
vt -0.0936 0.0005 1.0398
vt 0.0936 0.9995 1.0398
vt -0.0936 0.9995 1.0398
vt 0.0936 0.0005 1.0398
vt 0.2500 0.9995 1.1535
vt 0.2500 0.0005 1.1535
vt 0.4064 0.9995 1.0398
vt 0.4064 0.0005 1.0398
vt 0.5936 0.9995 1.0398
vt 0.5936 0.0005 1.0398
vt 0.5000 0.5000 0.2498
vt 0.5000 1.0768 0.2498
vt 0.0674 0.7884 0.2498
vt 0.0674 0.2116 0.2498
vt 0.5000 -0.0768 0.2498
vt 0.9326 0.2116 0.2498
vt 0.9326 0.7884 0.2498
# 28 texture coords

g Cylinder001
usemtl 02___Default
s 1
f 1/1/1 2/2/1 3/3/1 
f 1/1/1 4/4/1 2/2/1 
f 1/1/1 5/5/1 4/4/1 
f 1/1/1 6/6/1 5/5/1 
f 1/1/1 7/7/1 6/6/1 
f 1/1/1 3/3/1 7/7/1 
s 8
f 3/8/2 8/9/3 9/10/4 
f 3/8/2 2/11/3 8/9/3 
f 2/12/3 10/13/5 8/14/3 
f 2/12/3 4/15/5 10/13/5 
f 4/15/5 11/16/6 10/13/5 
f 4/15/5 5/17/7 11/16/6 
f 5/17/7 12/18/8 11/16/6 
f 5/17/7 6/19/8 12/18/8 
f 6/19/8 13/20/9 12/18/8 
f 6/19/8 7/21/9 13/20/9 
f 7/21/9 9/10/4 13/20/9 
f 7/21/9 3/8/2 9/10/4 
s 1
f 14/22/10 9/23/10 8/24/10 
f 14/22/10 8/24/10 10/25/10 
f 14/22/10 10/25/10 11/26/10 
f 14/22/10 11/26/10 12/27/10 
f 14/22/10 12/27/10 13/28/10 
f 14/22/10 13/28/10 9/23/10 
# 24 faces

